<mxfile host="app.diagrams.net" agent="Mozilla/5.0 (Windows NT 10.0; Win64; x64) AppleWebKit/537.36 (KHTML, like Gecko) Chrome/126.0.0.0 Safari/537.36" version="24.7.6">
  <diagram name="第 1 页" id="0JPKnUV_noWftDbcUkam">
    <mxGraphModel dx="1290" dy="530" grid="1" gridSize="10" guides="1" tooltips="1" connect="1" arrows="1" fold="1" page="1" pageScale="1" pageWidth="827" pageHeight="1169" math="0" shadow="0">
      <root>
        <mxCell id="0" />
        <mxCell id="1" parent="0" />
        <mxCell id="Df0ZifgfrBwaHpcLoW4S-1" value="管理者" style="shape=umlActor;verticalLabelPosition=bottom;verticalAlign=top;html=1;outlineConnect=0;" vertex="1" parent="1">
          <mxGeometry x="20" y="468" width="30" height="62" as="geometry" />
        </mxCell>
        <mxCell id="Df0ZifgfrBwaHpcLoW4S-2" value="NCU Portal OAuth 2.0" style="swimlane;whiteSpace=wrap;html=1;startSize=23;" vertex="1" parent="1">
          <mxGeometry x="140" y="40" width="140" height="270" as="geometry" />
        </mxCell>
        <mxCell id="Df0ZifgfrBwaHpcLoW4S-9" value="登入" style="ellipse;whiteSpace=wrap;html=1;" vertex="1" parent="Df0ZifgfrBwaHpcLoW4S-2">
          <mxGeometry x="25" y="100" width="90" height="60" as="geometry" />
        </mxCell>
        <mxCell id="Df0ZifgfrBwaHpcLoW4S-67" value="查詢資料" style="ellipse;whiteSpace=wrap;html=1;" vertex="1" parent="Df0ZifgfrBwaHpcLoW4S-2">
          <mxGeometry x="25" y="190" width="90" height="60" as="geometry" />
        </mxCell>
        <mxCell id="Df0ZifgfrBwaHpcLoW4S-8" value="一般使用者" style="shape=umlActor;verticalLabelPosition=bottom;verticalAlign=top;html=1;outlineConnect=0;" vertex="1" parent="1">
          <mxGeometry x="60" y="165" width="30" height="55" as="geometry" />
        </mxCell>
        <mxCell id="Df0ZifgfrBwaHpcLoW4S-11" value="" style="endArrow=classic;html=1;rounded=0;" edge="1" parent="1">
          <mxGeometry width="50" height="50" relative="1" as="geometry">
            <mxPoint x="60" y="498" as="sourcePoint" />
            <mxPoint x="160" y="498" as="targetPoint" />
          </mxGeometry>
        </mxCell>
        <mxCell id="Df0ZifgfrBwaHpcLoW4S-12" value="" style="endArrow=classic;html=1;rounded=0;entryX=0;entryY=0.5;entryDx=0;entryDy=0;" edge="1" parent="1" target="Df0ZifgfrBwaHpcLoW4S-9">
          <mxGeometry width="50" height="50" relative="1" as="geometry">
            <mxPoint x="100" y="200" as="sourcePoint" />
            <mxPoint x="160" y="170" as="targetPoint" />
          </mxGeometry>
        </mxCell>
        <mxCell id="Df0ZifgfrBwaHpcLoW4S-13" value="NCU-MRBS" style="swimlane;whiteSpace=wrap;html=1;startSize=23;" vertex="1" parent="1">
          <mxGeometry x="380" y="40" width="200" height="280" as="geometry" />
        </mxCell>
        <mxCell id="Df0ZifgfrBwaHpcLoW4S-14" value="展示當前會議室預約狀況" style="ellipse;whiteSpace=wrap;html=1;" vertex="1" parent="Df0ZifgfrBwaHpcLoW4S-13">
          <mxGeometry x="50" y="40" width="90" height="60" as="geometry" />
        </mxCell>
        <mxCell id="Df0ZifgfrBwaHpcLoW4S-15" value="申請預約會議室" style="ellipse;whiteSpace=wrap;html=1;" vertex="1" parent="Df0ZifgfrBwaHpcLoW4S-13">
          <mxGeometry x="50" y="120" width="90" height="60" as="geometry" />
        </mxCell>
        <mxCell id="Df0ZifgfrBwaHpcLoW4S-16" value="當預約成功&lt;div&gt;寄信通知&lt;/div&gt;" style="ellipse;whiteSpace=wrap;html=1;" vertex="1" parent="Df0ZifgfrBwaHpcLoW4S-13">
          <mxGeometry x="55" y="210" width="90" height="60" as="geometry" />
        </mxCell>
        <mxCell id="Df0ZifgfrBwaHpcLoW4S-26" value="" style="endArrow=open;endSize=12;dashed=1;html=1;rounded=0;exitX=0.5;exitY=1;exitDx=0;exitDy=0;" edge="1" parent="Df0ZifgfrBwaHpcLoW4S-13" source="Df0ZifgfrBwaHpcLoW4S-15" target="Df0ZifgfrBwaHpcLoW4S-16">
          <mxGeometry width="160" relative="1" as="geometry">
            <mxPoint x="-40" y="240" as="sourcePoint" />
            <mxPoint x="70" y="90" as="targetPoint" />
          </mxGeometry>
        </mxCell>
        <mxCell id="Df0ZifgfrBwaHpcLoW4S-27" value="&lt;font style=&quot;font-size: 10px;&quot;&gt;&amp;lt;&amp;lt;include&amp;gt;&amp;gt;&lt;/font&gt;" style="text;html=1;align=center;verticalAlign=middle;resizable=0;points=[];autosize=1;strokeColor=none;fillColor=none;" vertex="1" parent="Df0ZifgfrBwaHpcLoW4S-13">
          <mxGeometry x="85" y="180" width="80" height="30" as="geometry" />
        </mxCell>
        <mxCell id="Df0ZifgfrBwaHpcLoW4S-22" value="" style="endArrow=open;endSize=12;dashed=1;html=1;rounded=0;exitX=1;exitY=0.5;exitDx=0;exitDy=0;entryX=0;entryY=0.5;entryDx=0;entryDy=0;" edge="1" parent="1" source="Df0ZifgfrBwaHpcLoW4S-9" target="Df0ZifgfrBwaHpcLoW4S-14">
          <mxGeometry width="160" relative="1" as="geometry">
            <mxPoint x="300" y="100" as="sourcePoint" />
            <mxPoint x="460" y="100" as="targetPoint" />
          </mxGeometry>
        </mxCell>
        <mxCell id="Df0ZifgfrBwaHpcLoW4S-23" value="&lt;font style=&quot;font-size: 10px;&quot;&gt;&amp;lt;&amp;lt;include&amp;gt;&amp;gt;&lt;/font&gt;" style="text;html=1;align=center;verticalAlign=middle;resizable=0;points=[];autosize=1;strokeColor=none;fillColor=none;" vertex="1" parent="1">
          <mxGeometry x="300" y="108" width="80" height="30" as="geometry" />
        </mxCell>
        <mxCell id="Df0ZifgfrBwaHpcLoW4S-24" value="" style="endArrow=open;endSize=12;dashed=1;html=1;rounded=0;exitX=0;exitY=0.5;exitDx=0;exitDy=0;entryX=1;entryY=1;entryDx=0;entryDy=0;" edge="1" parent="1" source="Df0ZifgfrBwaHpcLoW4S-15" target="Df0ZifgfrBwaHpcLoW4S-9">
          <mxGeometry width="160" relative="1" as="geometry">
            <mxPoint x="260" y="170" as="sourcePoint" />
            <mxPoint x="260" y="180" as="targetPoint" />
          </mxGeometry>
        </mxCell>
        <mxCell id="Df0ZifgfrBwaHpcLoW4S-25" value="&lt;font style=&quot;font-size: 10px;&quot;&gt;&amp;lt;&amp;lt;exclude&amp;gt;&amp;gt;&lt;/font&gt;" style="text;html=1;align=center;verticalAlign=middle;resizable=0;points=[];autosize=1;strokeColor=none;fillColor=none;" vertex="1" parent="1">
          <mxGeometry x="300" y="165" width="80" height="30" as="geometry" />
        </mxCell>
        <mxCell id="Df0ZifgfrBwaHpcLoW4S-40" value="NCU Portal OAuth 2.0" style="swimlane;whiteSpace=wrap;html=1;startSize=23;" vertex="1" parent="1">
          <mxGeometry x="140" y="370" width="140" height="380" as="geometry" />
        </mxCell>
        <mxCell id="Df0ZifgfrBwaHpcLoW4S-41" value="登入" style="ellipse;whiteSpace=wrap;html=1;" vertex="1" parent="Df0ZifgfrBwaHpcLoW4S-40">
          <mxGeometry x="25" y="100" width="90" height="60" as="geometry" />
        </mxCell>
        <mxCell id="Df0ZifgfrBwaHpcLoW4S-73" value="查詢資料" style="ellipse;whiteSpace=wrap;html=1;" vertex="1" parent="Df0ZifgfrBwaHpcLoW4S-40">
          <mxGeometry x="25" y="200" width="90" height="60" as="geometry" />
        </mxCell>
        <mxCell id="Df0ZifgfrBwaHpcLoW4S-42" value="NCU-MRBS" style="swimlane;whiteSpace=wrap;html=1;startSize=23;" vertex="1" parent="1">
          <mxGeometry x="380" y="370" width="200" height="610" as="geometry" />
        </mxCell>
        <mxCell id="Df0ZifgfrBwaHpcLoW4S-43" value="展示當前會議室預約狀況" style="ellipse;whiteSpace=wrap;html=1;" vertex="1" parent="Df0ZifgfrBwaHpcLoW4S-42">
          <mxGeometry x="50" y="40" width="90" height="60" as="geometry" />
        </mxCell>
        <mxCell id="Df0ZifgfrBwaHpcLoW4S-52" value="會議&lt;div&gt;新增/修改/刪除&lt;/div&gt;" style="ellipse;whiteSpace=wrap;html=1;" vertex="1" parent="Df0ZifgfrBwaHpcLoW4S-42">
          <mxGeometry x="55" y="290" width="90" height="60" as="geometry" />
        </mxCell>
        <mxCell id="Df0ZifgfrBwaHpcLoW4S-53" value="串屆 Portal&lt;div&gt;新增/停權&lt;div&gt;系統管理員&lt;/div&gt;&lt;/div&gt;" style="ellipse;whiteSpace=wrap;html=1;" vertex="1" parent="Df0ZifgfrBwaHpcLoW4S-42">
          <mxGeometry x="55" y="380" width="90" height="60" as="geometry" />
        </mxCell>
        <mxCell id="Df0ZifgfrBwaHpcLoW4S-54" value="顯示/選擇&lt;div&gt;看板顯示的會議&lt;/div&gt;" style="ellipse;whiteSpace=wrap;html=1;" vertex="1" parent="Df0ZifgfrBwaHpcLoW4S-42">
          <mxGeometry x="55" y="460" width="90" height="60" as="geometry" />
        </mxCell>
        <mxCell id="Df0ZifgfrBwaHpcLoW4S-55" value="記錄登入狀況" style="ellipse;whiteSpace=wrap;html=1;" vertex="1" parent="Df0ZifgfrBwaHpcLoW4S-42">
          <mxGeometry x="55" y="540" width="90" height="60" as="geometry" />
        </mxCell>
        <mxCell id="Df0ZifgfrBwaHpcLoW4S-58" value="申請預約會議室" style="ellipse;whiteSpace=wrap;html=1;" vertex="1" parent="Df0ZifgfrBwaHpcLoW4S-42">
          <mxGeometry x="50" y="120" width="90" height="60" as="geometry" />
        </mxCell>
        <mxCell id="Df0ZifgfrBwaHpcLoW4S-59" value="當預約成功&lt;div&gt;寄信通知&lt;/div&gt;" style="ellipse;whiteSpace=wrap;html=1;" vertex="1" parent="Df0ZifgfrBwaHpcLoW4S-42">
          <mxGeometry x="55" y="210" width="90" height="60" as="geometry" />
        </mxCell>
        <mxCell id="Df0ZifgfrBwaHpcLoW4S-60" value="" style="endArrow=open;endSize=12;dashed=1;html=1;rounded=0;exitX=0.5;exitY=1;exitDx=0;exitDy=0;" edge="1" parent="Df0ZifgfrBwaHpcLoW4S-42" source="Df0ZifgfrBwaHpcLoW4S-58" target="Df0ZifgfrBwaHpcLoW4S-59">
          <mxGeometry width="160" relative="1" as="geometry">
            <mxPoint x="-40" y="240" as="sourcePoint" />
            <mxPoint x="70" y="90" as="targetPoint" />
          </mxGeometry>
        </mxCell>
        <mxCell id="Df0ZifgfrBwaHpcLoW4S-61" value="" style="endArrow=open;endSize=12;dashed=1;html=1;rounded=0;exitX=0;exitY=0.5;exitDx=0;exitDy=0;entryX=1;entryY=1;entryDx=0;entryDy=0;" edge="1" parent="Df0ZifgfrBwaHpcLoW4S-42" source="Df0ZifgfrBwaHpcLoW4S-58">
          <mxGeometry width="160" relative="1" as="geometry">
            <mxPoint x="-120" y="130" as="sourcePoint" />
            <mxPoint x="-138" y="151" as="targetPoint" />
          </mxGeometry>
        </mxCell>
        <mxCell id="Df0ZifgfrBwaHpcLoW4S-62" value="&lt;font style=&quot;font-size: 10px;&quot;&gt;&amp;lt;&amp;lt;exclude&amp;gt;&amp;gt;&lt;/font&gt;" style="text;html=1;align=center;verticalAlign=middle;resizable=0;points=[];autosize=1;strokeColor=none;fillColor=none;" vertex="1" parent="Df0ZifgfrBwaHpcLoW4S-42">
          <mxGeometry x="-80" y="125" width="80" height="30" as="geometry" />
        </mxCell>
        <mxCell id="Df0ZifgfrBwaHpcLoW4S-63" value="&lt;font style=&quot;font-size: 10px;&quot;&gt;&amp;lt;&amp;lt;include&amp;gt;&amp;gt;&lt;/font&gt;" style="text;html=1;align=center;verticalAlign=middle;resizable=0;points=[];autosize=1;strokeColor=none;fillColor=none;" vertex="1" parent="Df0ZifgfrBwaHpcLoW4S-42">
          <mxGeometry x="90" y="180" width="80" height="30" as="geometry" />
        </mxCell>
        <mxCell id="Df0ZifgfrBwaHpcLoW4S-79" value="&lt;font style=&quot;font-size: 10px;&quot;&gt;&amp;lt;&amp;lt;exclude&amp;gt;&amp;gt;&lt;/font&gt;" style="text;html=1;align=center;verticalAlign=middle;resizable=0;points=[];autosize=1;strokeColor=none;fillColor=none;" vertex="1" parent="Df0ZifgfrBwaHpcLoW4S-42">
          <mxGeometry x="-10" y="250" width="80" height="30" as="geometry" />
        </mxCell>
        <mxCell id="Df0ZifgfrBwaHpcLoW4S-81" value="&lt;font style=&quot;font-size: 10px;&quot;&gt;&amp;lt;&amp;lt;exclude&amp;gt;&amp;gt;&lt;/font&gt;" style="text;html=1;align=center;verticalAlign=middle;resizable=0;points=[];autosize=1;strokeColor=none;fillColor=none;" vertex="1" parent="Df0ZifgfrBwaHpcLoW4S-42">
          <mxGeometry x="20" y="350" width="80" height="30" as="geometry" />
        </mxCell>
        <mxCell id="Df0ZifgfrBwaHpcLoW4S-46" value="" style="endArrow=open;endSize=12;dashed=1;html=1;rounded=0;exitX=1;exitY=0.5;exitDx=0;exitDy=0;entryX=0;entryY=0.5;entryDx=0;entryDy=0;" edge="1" parent="1" source="Df0ZifgfrBwaHpcLoW4S-41" target="Df0ZifgfrBwaHpcLoW4S-43">
          <mxGeometry width="160" relative="1" as="geometry">
            <mxPoint x="300" y="430" as="sourcePoint" />
            <mxPoint x="460" y="430" as="targetPoint" />
          </mxGeometry>
        </mxCell>
        <mxCell id="Df0ZifgfrBwaHpcLoW4S-47" value="&lt;font style=&quot;font-size: 10px;&quot;&gt;&amp;lt;&amp;lt;include&amp;gt;&amp;gt;&lt;/font&gt;" style="text;html=1;align=center;verticalAlign=middle;resizable=0;points=[];autosize=1;strokeColor=none;fillColor=none;" vertex="1" parent="1">
          <mxGeometry x="300" y="438" width="80" height="30" as="geometry" />
        </mxCell>
        <mxCell id="Df0ZifgfrBwaHpcLoW4S-70" value="" style="endArrow=open;endSize=12;dashed=1;html=1;rounded=0;exitX=0.276;exitY=0.94;exitDx=0;exitDy=0;entryX=1;entryY=0.5;entryDx=0;entryDy=0;exitPerimeter=0;" edge="1" parent="1" source="Df0ZifgfrBwaHpcLoW4S-15" target="Df0ZifgfrBwaHpcLoW4S-67">
          <mxGeometry width="160" relative="1" as="geometry">
            <mxPoint x="440" y="200" as="sourcePoint" />
            <mxPoint x="252" y="201" as="targetPoint" />
          </mxGeometry>
        </mxCell>
        <mxCell id="Df0ZifgfrBwaHpcLoW4S-71" value="&lt;font style=&quot;font-size: 10px;&quot;&gt;&amp;lt;&amp;lt;include&amp;gt;&amp;gt;&lt;/font&gt;" style="text;html=1;align=center;verticalAlign=middle;resizable=0;points=[];autosize=1;strokeColor=none;fillColor=none;" vertex="1" parent="1">
          <mxGeometry x="300" y="210" width="80" height="30" as="geometry" />
        </mxCell>
        <mxCell id="Df0ZifgfrBwaHpcLoW4S-74" value="" style="endArrow=open;endSize=12;dashed=1;html=1;rounded=0;exitX=0;exitY=1;exitDx=0;exitDy=0;entryX=1;entryY=1;entryDx=0;entryDy=0;" edge="1" parent="1" source="Df0ZifgfrBwaHpcLoW4S-58" target="Df0ZifgfrBwaHpcLoW4S-73">
          <mxGeometry width="160" relative="1" as="geometry">
            <mxPoint x="465" y="226" as="sourcePoint" />
            <mxPoint x="265" y="270" as="targetPoint" />
          </mxGeometry>
        </mxCell>
        <mxCell id="Df0ZifgfrBwaHpcLoW4S-75" value="&lt;font style=&quot;font-size: 10px;&quot;&gt;&amp;lt;&amp;lt;include&amp;gt;&amp;gt;&lt;/font&gt;" style="text;html=1;align=center;verticalAlign=middle;resizable=0;points=[];autosize=1;strokeColor=none;fillColor=none;" vertex="1" parent="1">
          <mxGeometry x="310" y="545" width="80" height="30" as="geometry" />
        </mxCell>
        <mxCell id="Df0ZifgfrBwaHpcLoW4S-77" value="" style="endArrow=open;endSize=12;dashed=1;html=1;rounded=0;exitX=0;exitY=0.5;exitDx=0;exitDy=0;entryX=0.5;entryY=1;entryDx=0;entryDy=0;" edge="1" parent="1" source="Df0ZifgfrBwaHpcLoW4S-53" target="Df0ZifgfrBwaHpcLoW4S-73">
          <mxGeometry width="160" relative="1" as="geometry">
            <mxPoint x="453" y="551" as="sourcePoint" />
            <mxPoint x="265" y="610" as="targetPoint" />
          </mxGeometry>
        </mxCell>
        <mxCell id="Df0ZifgfrBwaHpcLoW4S-76" value="&lt;font style=&quot;font-size: 10px;&quot;&gt;&amp;lt;&amp;lt;include&amp;gt;&amp;gt;&lt;/font&gt;" style="text;html=1;align=center;verticalAlign=middle;resizable=0;points=[];autosize=1;strokeColor=none;fillColor=none;" vertex="1" parent="1">
          <mxGeometry x="280" y="660" width="80" height="30" as="geometry" />
        </mxCell>
        <mxCell id="Df0ZifgfrBwaHpcLoW4S-78" value="" style="endArrow=open;endSize=12;dashed=1;html=1;rounded=0;exitX=0.078;exitY=0.327;exitDx=0;exitDy=0;entryX=0.758;entryY=0.893;entryDx=0;entryDy=0;exitPerimeter=0;entryPerimeter=0;" edge="1" parent="1" source="Df0ZifgfrBwaHpcLoW4S-52" target="Df0ZifgfrBwaHpcLoW4S-41">
          <mxGeometry width="160" relative="1" as="geometry">
            <mxPoint x="440" y="530" as="sourcePoint" />
            <mxPoint x="252" y="531" as="targetPoint" />
          </mxGeometry>
        </mxCell>
        <mxCell id="Df0ZifgfrBwaHpcLoW4S-80" value="" style="endArrow=open;endSize=12;dashed=1;html=1;rounded=0;exitX=0.087;exitY=0.293;exitDx=0;exitDy=0;entryX=0.5;entryY=1;entryDx=0;entryDy=0;exitPerimeter=0;" edge="1" parent="1" source="Df0ZifgfrBwaHpcLoW4S-53" target="Df0ZifgfrBwaHpcLoW4S-41">
          <mxGeometry width="160" relative="1" as="geometry">
            <mxPoint x="452" y="690" as="sourcePoint" />
            <mxPoint x="243" y="534" as="targetPoint" />
          </mxGeometry>
        </mxCell>
        <mxCell id="Df0ZifgfrBwaHpcLoW4S-83" value="&lt;font style=&quot;font-size: 10px;&quot;&gt;&amp;lt;&amp;lt;exclude&amp;gt;&amp;gt;&lt;/font&gt;" style="text;html=1;align=center;verticalAlign=middle;resizable=0;points=[];autosize=1;strokeColor=none;fillColor=none;" vertex="1" parent="1">
          <mxGeometry x="300" y="780" width="80" height="30" as="geometry" />
        </mxCell>
        <mxCell id="Df0ZifgfrBwaHpcLoW4S-84" value="" style="endArrow=open;endSize=12;dashed=1;html=1;rounded=0;exitX=0.091;exitY=0.747;exitDx=0;exitDy=0;exitPerimeter=0;entryX=0;entryY=0.5;entryDx=0;entryDy=0;" edge="1" parent="1" source="Df0ZifgfrBwaHpcLoW4S-41" target="Df0ZifgfrBwaHpcLoW4S-55">
          <mxGeometry width="160" relative="1" as="geometry">
            <mxPoint x="265" y="510" as="sourcePoint" />
            <mxPoint x="40" y="950" as="targetPoint" />
            <Array as="points">
              <mxPoint x="50" y="710" />
              <mxPoint x="230" y="890" />
            </Array>
          </mxGeometry>
        </mxCell>
        <mxCell id="Df0ZifgfrBwaHpcLoW4S-85" value="&lt;font style=&quot;font-size: 10px;&quot;&gt;&amp;lt;&amp;lt;include&amp;gt;&amp;gt;&lt;/font&gt;" style="text;html=1;align=center;verticalAlign=middle;resizable=0;points=[];autosize=1;strokeColor=none;fillColor=none;" vertex="1" parent="1">
          <mxGeometry x="300" y="890" width="80" height="30" as="geometry" />
        </mxCell>
        <mxCell id="Df0ZifgfrBwaHpcLoW4S-86" value="" style="endArrow=open;endSize=12;dashed=1;html=1;rounded=0;exitX=0;exitY=0.5;exitDx=0;exitDy=0;entryX=0;entryY=1;entryDx=0;entryDy=0;" edge="1" parent="1" source="Df0ZifgfrBwaHpcLoW4S-54" target="Df0ZifgfrBwaHpcLoW4S-41">
          <mxGeometry width="160" relative="1" as="geometry">
            <mxPoint x="445" y="790" as="sourcePoint" />
            <mxPoint x="220" y="640" as="targetPoint" />
            <Array as="points">
              <mxPoint x="100" y="700" />
            </Array>
          </mxGeometry>
        </mxCell>
      </root>
    </mxGraphModel>
  </diagram>
</mxfile>
